<?xml version="1.0" standalone="no"?><!DOCTYPE svg PUBLIC "-//W3C//DTD SVG 1.1//EN" "http://www.w3.org/Graphics/SVG/1.1/DTD/svg11.dtd"><svg t="1516510848697" class="icon" style="" viewBox="0 0 1024 1024" version="1.1" xmlns="http://www.w3.org/2000/svg" p-id="1301" xmlns:xlink="http://www.w3.org/1999/xlink" width="16" height="16"><defs><style type="text/css"></style></defs><path d="M412.19 750.45a264.73 264.73 0 0 0-80.1 46.3c-47.14 39.93-75 93.18-78.67 150.25h517.72c-3.68-57.07-31.53-110.32-78.67-150.25a265 265 0 0 0-82-47 316.06 316.06 0 0 1-198.25 0.71z" fill="#EF6A6A" p-id="1302"></path><path d="M823.41 452.9a313.64 313.64 0 1 0-91.71 221.43 311.09 311.09 0 0 0 91.71-221.43z m-612.87 58.89A128.06 128.06 0 1 1 338.6 639.85a128.2 128.2 0 0 1-128.06-128.06z m343.34 0a128.06 128.06 0 1 1 128.06 128.06 128.2 128.2 0 0 1-128.06-128.06z" fill="#FFD4C7" p-id="1303"></path><path d="M466.66 511.79A128.06 128.06 0 1 0 338.6 639.85a128.2 128.2 0 0 0 128.06-128.06zM810 511.79a128.06 128.06 0 1 0-128.06 128.06A128.2 128.2 0 0 0 810 511.79z" fill="#AEF0FF" p-id="1304"></path><path d="M671.205043 163.683489a54.43 46.19 35.59 1 0 53.763409-75.123633 54.43 46.19 35.59 1 0-53.763409 75.123633Z" fill="#EF6A6A" p-id="1305"></path><path d="M761.354755 228.184383a54.43 46.19 35.59 1 0 53.76341-75.123632 54.43 46.19 35.59 1 0-53.76341 75.123632Z" fill="#EF6A6A" p-id="1306"></path><path d="M843.09 229.9c19-26.56 9.86-65.79-20.4-87.44-14.33-10.26-31.32-15.15-47.84-13.79a62.63 62.63 0 0 0-12.08 2.19c-1-19.59-11.6-39.58-30.22-52.91-30.25-21.65-70.33-17.66-89.34 8.9a52.34 52.34 0 0 0-7.16 14.15 333.72 333.72 0 0 0-128-24.54C321.7 77.68 171 229.13 171 415.77v214.76a60.21 60.21 0 0 0 60.21 60.21h55.93A326.58 326.58 0 0 0 378 751.11c-79.16 39.65-133.61 113.29-137.75 198.44a10 10 0 0 0 10 10.45h524a10 10 0 0 0 10-10.45c-4.17-85.83-59.46-160-139.7-199.37a326.63 326.63 0 0 0 88.81-59.45h55.93a60.21 60.21 0 0 0 60.21-60.21V418a339.85 339.85 0 0 0-43.23-166c14.73-2.39 28.05-9.84 36.82-22.1z m-88.52-63.35c4.91-6.87 12.88-11.08 22.44-11.87q1.66-0.14 3.32-0.14a47.05 47.05 0 0 1 27.18 9.14c18.55 13.28 25 36.17 14.36 51-6.74 9.42-18.75 13.38-31.36 11.64A346 346 0 0 0 750 177.16a27.2 27.2 0 0 1 4.57-10.62zM510.27 753A299 299 0 0 1 308 674.62c-0.88-5.59-2.27-14.55-4-26.05a141.16 141.16 0 0 0 175.06-123.78h62.42a141.16 141.16 0 0 0 175 123.78c-1.69 11.5-3.08 20.46-4 26.05A299 299 0 0 1 510.27 753zM338.6 370.73a140.55 140.55 0 0 0-57.37 12.16 334.37 334.37 0 0 1 2.5-33.73l318.31 0.51 24.08-78.93L652.23 349l84.62 0.51c1.3 9.9 2.09 21.14 2.45 33.36a141.12 141.12 0 0 0-197.82 115.9h-62.42A141.07 141.07 0 0 0 338.6 370.73z m115.06 141.06A115.06 115.06 0 1 1 420 430.43a114.31 114.31 0 0 1 33.66 81.36z m146.92-81.36a115.06 115.06 0 1 1-33.7 81.36 114.31 114.31 0 0 1 33.7-81.36zM664.44 102c5.71-8 15.2-12 25.64-12a47.45 47.45 0 0 1 27.3 9.18c18.56 13.28 25 36.17 14.36 51a26.85 26.85 0 0 1-5.16 5.4 341.6 341.6 0 0 0-66.53-43.71 27.1 27.1 0 0 1 4.39-9.87z m19.62 704.63C724.63 841 750 885.74 756.76 934h-489c6.73-48.26 32.13-93 72.69-127.33a250.85 250.85 0 0 1 72.19-42.48 327.7 327.7 0 0 0 197.38-0.71 251.26 251.26 0 0 1 74.04 43.19z" fill="#512C56" p-id="1307"></path></svg>